# xmcd
#
# Track frame offsets:
#	150
#	15997
#	40517
#	69842
#	94580
#
# Disc length: 1557 seconds
# Revision: 0
# Processed by: cddbd v1.5.2PL0 Copyright (c) Steve Scherf et al.
# Submitted via: dBpowerAMP V12.0
#
DISCID=28061305
DTITLE=Sub Sub feat. Nina Henchion - Respect
DYEAR=1994
DGENRE=House
TTITLE0=Respect [7” Edit]
TTITLE1=Respect [12" Original]
TTITLE2=Respect [Dasilva/McCready 12” Mix]
TTITLE3=Respect [Dasilva's Acid Dub]
TTITLE4=Respect [Primetime Remix]
EXTD=
EXTT0=
EXTT1=
EXTT2=
EXTT3=
EXTT4=
PLAYORDER=
